<?xml version="1.0" encoding="iso-8859-1"?>
<!-- Generator: Adobe Illustrator 19.0.0, SVG Export Plug-In . SVG Version: 6.00 Build 0)  -->
<svg version="1.1" id="Capa_1" xmlns="http://www.w3.org/2000/svg" xmlns:xlink="http://www.w3.org/1999/xlink" x="0px" y="0px"
	 viewBox="0 0 512 512" style="enable-background:new 0 0 512 512;" xml:space="preserve">
<g>
	<g>
		<g>
			<path d="M309.333,234.667H202.667c-5.896,0-10.667,4.771-10.667,10.667V288c0,5.896,4.771,10.667,10.667,10.667H224v96
				c0,5.896,4.771,10.667,10.667,10.667h42.667c5.896,0,10.667-4.771,10.667-10.667v-96h21.333c5.896,0,10.667-4.771,10.667-10.667
				v-42.667C320,239.438,315.229,234.667,309.333,234.667z M298.667,277.333h-21.333c-5.896,0-10.667,4.771-10.667,10.667v96
				h-21.333v-96c0-5.896-4.771-10.667-10.667-10.667h-21.333V256h85.333V277.333z"/>
			<path d="M506.438,424.521L296.354,44.344c-7.854-14.198-22.813-23.01-39.021-23.01h-2.667c-16.208,0-31.166,8.813-39.021,23.021
				L5.563,424.521C1.917,431.115,0,438.563,0,446.083c0,24.583,20,44.583,44.583,44.583h422.833c24.583,0,44.583-20,44.583-44.583
				C512,438.563,510.083,431.115,506.438,424.521z M467.417,469.333H44.583c-12.813,0-23.25-10.427-23.25-23.25
				c0-3.917,1-7.813,2.896-11.25L234.313,54.677c4.104-7.406,11.896-12.01,20.354-12.01h2.667c8.459,0,16.25,4.604,20.354,12
				l210.083,380.167c1.896,3.438,2.896,7.333,2.896,11.25C490.667,458.906,480.229,469.333,467.417,469.333z"/>
		</g>
	</g>
</g>
<g>
</g>
<g>
</g>
<g>
</g>
<g>
</g>
<g>
</g>
<g>
</g>
<g>
</g>
<g>
</g>
<g>
</g>
<g>
</g>
<g>
</g>
<g>
</g>
<g>
</g>
<g>
</g>
<g>
</g>
</svg>
